<?xml version="1.0" encoding="utf-8"?>
<!-- Generator: Adobe Illustrator 16.0.0, SVG Export Plug-In . SVG Version: 6.00 Build 0)  -->
<!DOCTYPE svg PUBLIC "-//W3C//DTD SVG 1.1//EN" "http://www.w3.org/Graphics/SVG/1.1/DTD/svg11.dtd">
<svg version="1.1" id="Layer_1" xmlns="http://www.w3.org/2000/svg" xmlns:xlink="http://www.w3.org/1999/xlink" x="0px" y="0px"
	 width="34.266px" height="24.854px" viewBox="0 0 34.266 24.854" enable-background="new 0 0 34.266 24.854" xml:space="preserve">
<g id="Capa_1">
	<g>
		<g>
			<g>
				<g>
					<g>
						<path fill="#DB2E2E" d="M34.266,9.987C22.844,3.632,11.422,16.343,0,9.987c0-0.545,0-1.089,0-1.634
							c11.422,6.355,22.844-6.354,34.266,0C34.266,8.898,34.266,9.442,34.266,9.987z"/>
					</g>
					<g>
						<path fill="#DB2E2E" d="M34.266,6.726C22.844,0.37,11.422,13.081,0,6.726c0-0.544,0-1.089,0-1.633
							c11.422,6.355,22.844-6.355,34.266,0C34.266,5.637,34.266,6.182,34.266,6.726z"/>
					</g>
					<g>
						<path fill="#DB2E2E" d="M34.266,3.468C22.844-2.888,11.422,9.823,0,3.468c0-0.544,0-1.089,0-1.633
							c11.422,6.354,22.844-6.355,34.266,0C34.266,2.379,34.266,2.924,34.266,3.468z"/>
					</g>
					<g>
						<path fill="#DB2E2E" d="M34.266,13.249c-11.422-6.355-22.844,6.354-34.266,0c0-0.545,0-1.089,0-1.634
							c11.422,6.354,22.844-6.355,34.266,0C34.266,12.16,34.266,12.704,34.266,13.249z"/>
					</g>
					<g>
						<path fill="#DB2E2E" d="M34.266,16.505C22.844,10.15,11.422,22.86,0,16.505c0-0.545,0-1.089,0-1.634
							c11.422,6.354,22.844-6.355,34.266,0C34.266,15.416,34.266,15.96,34.266,16.505z"/>
					</g>
					<g>
						<path fill="#DB2E2E" d="M34.266,19.765C22.844,13.41,11.422,26.12,0,19.765c0-0.544,0-1.089,0-1.633
							c11.422,6.354,22.844-6.355,34.266,0C34.266,18.676,34.266,19.221,34.266,19.765z"/>
					</g>
					<g>
						<path fill="#DB2E2E" d="M34.266,23.02c-11.422-6.354-22.844,6.355-34.266,0c0-0.544,0-1.089,0-1.633
							c11.422,6.355,22.844-6.354,34.266,0C34.266,21.931,34.266,22.476,34.266,23.02z"/>
					</g>
				</g>
				<path fill="#FFFFFF" d="M34.266,8.356C22.844,2.001,11.422,14.712,0,8.356c0-0.544,0-1.089,0-1.633
					c11.422,6.355,22.844-6.354,34.266,0C34.266,7.268,34.266,7.813,34.266,8.356z"/>
				<path fill="#FFFFFF" d="M34.266,5.099C22.844-1.257,11.422,11.454,0,5.099C0,4.555,0,4.01,0,3.466
					c11.422,6.354,22.844-6.355,34.266,0C34.266,4.01,34.266,4.555,34.266,5.099z"/>
				<path fill="#FFFFFF" d="M34.266,11.618c-11.422-6.355-22.844,6.354-34.266,0c0-0.544,0-1.09,0-1.634
					c11.422,6.355,22.844-6.354,34.266,0C34.266,10.529,34.266,11.074,34.266,11.618z"/>
				<path fill="#FFFFFF" d="M34.266,14.873c-11.422-6.355-22.844,6.354-34.266,0c0-0.544,0-1.089,0-1.633
					c11.422,6.354,22.844-6.355,34.266,0C34.266,13.784,34.266,14.329,34.266,14.873z"/>
				<path fill="#FFFFFF" d="M34.266,18.135c-11.422-6.354-22.844,6.355-34.266,0c0-0.544,0-1.089,0-1.633
					c11.422,6.354,22.844-6.355,34.266,0C34.266,17.046,34.266,17.591,34.266,18.135z"/>
				<path fill="#FFFFFF" d="M34.266,21.395C22.844,15.04,11.422,27.75,0,21.395c0-0.544,0-1.089,0-1.633
					c11.422,6.355,22.844-6.354,34.266,0C34.266,20.306,34.266,20.851,34.266,21.395z"/>
			</g>
			<path fill="#2E4593" d="M12.813,3.014C8.542,3.975,4.271,4.264,0,1.888c0,3.289,0,6.577,0,9.866
				c4.271,2.376,8.542,2.087,12.813,1.126C12.813,9.591,12.813,6.302,12.813,3.014z"/>
			<g>
				<g>
					<g>
						<path fill="#FFFFFF" d="M10.709,5.384c0.045,0.12,0.09,0.24,0.135,0.36c-0.108-0.063-0.216-0.125-0.324-0.188V5.554
							l-0.001,0.002c-0.106,0.097-0.216,0.193-0.323,0.288c0.046-0.134,0.092-0.268,0.137-0.402
							c0.001-0.001,0.002-0.002,0.003-0.003c-0.001,0-0.001,0-0.002,0C10.221,5.38,10.109,5.32,9.998,5.261
							c0.134-0.018,0.269-0.037,0.401-0.057c0.037-0.135,0.073-0.269,0.11-0.401c0.041,0.122,0.083,0.243,0.124,0.365l0,0l0,0
							c0.136-0.021,0.271-0.044,0.406-0.067c-0.111,0.094-0.225,0.188-0.335,0.28h-0.001C10.706,5.382,10.708,5.383,10.709,5.384z"
							/>
					</g>
					<g>
						<path fill="#FFFFFF" d="M10.709,7.377c0.045,0.12,0.09,0.239,0.135,0.358c-0.108-0.062-0.216-0.124-0.324-0.188V7.547
							L10.519,7.55c-0.106,0.096-0.216,0.191-0.323,0.286c0.046-0.134,0.092-0.269,0.137-0.401c0.001,0,0.002-0.001,0.003-0.002
							c-0.001,0-0.001,0-0.002,0c-0.111-0.059-0.224-0.119-0.334-0.18c0.134-0.019,0.269-0.036,0.401-0.056
							c0.037-0.135,0.073-0.269,0.11-0.401c0.041,0.121,0.083,0.243,0.124,0.364c0,0.001,0,0.001,0,0.001l0,0
							c0.136-0.021,0.271-0.045,0.406-0.068c-0.111,0.095-0.225,0.189-0.335,0.282h-0.001C10.706,7.376,10.708,7.376,10.709,7.377z"
							/>
					</g>
					<g>
						<path fill="#FFFFFF" d="M10.709,9.371c0.045,0.119,0.09,0.238,0.135,0.357c-0.108-0.062-0.216-0.125-0.324-0.188
							c0,0,0,0,0-0.001c0,0.001-0.001,0.001-0.001,0.001c-0.106,0.097-0.216,0.192-0.323,0.288c0.046-0.134,0.092-0.268,0.137-0.4
							c0.001-0.001,0.002-0.003,0.003-0.004c-0.001,0-0.001,0-0.002,0c-0.111-0.059-0.224-0.118-0.334-0.178
							c0.133-0.019,0.268-0.037,0.4-0.058c0.037-0.134,0.073-0.268,0.11-0.4c0.041,0.122,0.083,0.243,0.124,0.364v0.002V9.154
							c0.136-0.021,0.271-0.044,0.406-0.066c-0.111,0.094-0.225,0.188-0.335,0.28h-0.001C10.706,9.368,10.708,9.37,10.709,9.371z"/>
					</g>
					<g>
						<path fill="#FFFFFF" d="M10.709,11.363c0.045,0.12,0.09,0.239,0.135,0.359c-0.108-0.062-0.216-0.124-0.324-0.188v-0.002
							l-0.001,0.003c-0.106,0.096-0.216,0.19-0.323,0.285c0.046-0.134,0.092-0.268,0.137-0.4c0.001,0,0.002-0.001,0.003-0.002
							c-0.001,0-0.001,0-0.002,0c-0.111-0.06-0.224-0.119-0.334-0.181c0.134-0.018,0.269-0.035,0.401-0.056
							c0.037-0.134,0.073-0.268,0.11-0.4c0.041,0.12,0.083,0.242,0.124,0.363c0,0.001,0,0.001,0,0.001l0,0
							c0.136-0.021,0.271-0.045,0.406-0.067c-0.111,0.095-0.225,0.188-0.335,0.281h-0.001
							C10.706,11.362,10.708,11.362,10.709,11.363z"/>
					</g>
				</g>
				<g>
					<g>
						<path fill="#FFFFFF" d="M8.59,5.634c0.045,0.124,0.09,0.248,0.135,0.372C8.616,5.935,8.509,5.862,8.4,5.788
							c0,0,0-0.001,0-0.002c0,0.001-0.001,0.002-0.001,0.002C8.291,5.875,8.184,5.961,8.075,6.046
							c0.045-0.129,0.091-0.26,0.136-0.39c0.001-0.001,0.003-0.003,0.004-0.004c-0.001,0-0.001,0-0.002,0
							C8.102,5.585,7.99,5.515,7.879,5.443c0.134-0.005,0.269-0.011,0.401-0.018C8.317,5.294,8.354,5.164,8.39,5.033
							C8.433,5.16,8.474,5.285,8.516,5.411c-0.001,0-0.001,0-0.002,0c0.001,0,0.001,0,0.002,0c0.134-0.01,0.27-0.02,0.404-0.031
							C8.809,5.464,8.698,5.548,8.587,5.631c-0.001,0-0.001,0-0.002,0C8.587,5.632,8.588,5.633,8.59,5.634z"/>
					</g>
					<g>
						<path fill="#FFFFFF" d="M8.59,7.627c0.045,0.124,0.09,0.248,0.135,0.371C8.616,7.927,8.509,7.854,8.4,7.782V7.781L8.399,7.782
							C8.291,7.868,8.184,7.954,8.075,8.038c0.045-0.129,0.091-0.26,0.136-0.39c0.001,0,0.003-0.001,0.004-0.002
							c-0.001,0-0.001,0-0.002,0C8.102,7.578,7.99,7.508,7.879,7.436c0.134-0.004,0.269-0.01,0.401-0.017
							C8.317,7.288,8.354,7.158,8.39,7.027c0.042,0.126,0.083,0.251,0.125,0.376c-0.001,0-0.001,0.001-0.002,0.003
							c0.001,0,0.001-0.002,0.002-0.002c0.135-0.01,0.271-0.021,0.404-0.031c-0.111,0.085-0.223,0.17-0.333,0.253
							c-0.001,0-0.001,0-0.002,0C8.587,7.626,8.588,7.626,8.59,7.627z"/>
					</g>
					<g>
						<path fill="#FFFFFF" d="M8.59,9.621c0.045,0.123,0.09,0.247,0.135,0.37C8.616,9.92,8.509,9.848,8.4,9.774c0,0,0-0.001,0-0.002
							c0,0.001-0.001,0.001-0.001,0.001C8.291,9.86,8.184,9.946,8.075,10.031c0.045-0.13,0.091-0.259,0.136-0.388
							C8.212,9.643,8.214,9.642,8.215,9.64c-0.001,0-0.001,0-0.002,0C8.102,9.571,7.99,9.501,7.879,9.43
							c0.134-0.005,0.269-0.011,0.401-0.018C8.317,9.281,8.354,9.151,8.39,9.02c0.042,0.126,0.083,0.251,0.125,0.377
							c-0.001,0-0.001,0.001-0.002,0.001c0.001,0,0.001-0.001,0.002-0.001c0.135-0.009,0.271-0.02,0.404-0.03
							C8.809,9.45,8.698,9.534,8.587,9.617c-0.001,0-0.001,0-0.002,0C8.587,9.618,8.588,9.619,8.59,9.621z"/>
					</g>
					<g>
						<path fill="#FFFFFF" d="M8.59,11.613c0.045,0.124,0.09,0.248,0.135,0.371c-0.107-0.07-0.216-0.144-0.324-0.216v-0.002
							L8.4,11.768c-0.107,0.086-0.216,0.172-0.323,0.256c0.045-0.129,0.091-0.259,0.136-0.389c0.001,0,0.003-0.001,0.004-0.002
							c-0.001,0-0.001,0-0.002,0c-0.111-0.069-0.223-0.14-0.334-0.212c0.134-0.004,0.269-0.01,0.402-0.018
							c0.035-0.131,0.072-0.261,0.108-0.392c0.042,0.126,0.083,0.251,0.125,0.376c-0.001,0.001-0.001,0.001-0.002,0.002
							c0.001,0,0.001-0.001,0.002-0.001c0.135-0.01,0.271-0.021,0.404-0.032c-0.111,0.085-0.222,0.17-0.333,0.253
							c-0.001,0-0.001,0-0.002,0C8.587,11.612,8.588,11.612,8.59,11.613z"/>
					</g>
				</g>
				<g>
					<g>
						<path fill="#FFFFFF" d="M6.469,5.665c0.046,0.13,0.091,0.259,0.137,0.389C6.497,5.97,6.39,5.885,6.281,5.798
							c0,0-0.001-0.001-0.001-0.002c0,0.001-0.001,0.001-0.001,0.001c-0.107,0.075-0.216,0.147-0.323,0.22
							C6,5.893,6.046,5.768,6.091,5.644c0.002-0.001,0.003-0.002,0.005-0.003c-0.001,0-0.003,0-0.004,0
							C5.98,5.559,5.87,5.475,5.759,5.39c0.134,0.013,0.269,0.022,0.402,0.031C6.197,5.295,6.234,5.169,6.27,5.043
							c0.041,0.13,0.083,0.261,0.124,0.391l0,0c0.001,0.001,0.001,0,0.002,0.001C6.531,5.441,6.666,5.448,6.8,5.45
							c-0.111,0.07-0.222,0.142-0.333,0.212c-0.001,0-0.001,0-0.002,0C6.466,5.663,6.468,5.664,6.469,5.665z"/>
					</g>
					<g>
						<path fill="#FFFFFF" d="M6.469,7.658c0.046,0.13,0.091,0.259,0.137,0.388C6.497,7.962,6.39,7.877,6.281,7.791L6.28,7.789
							c0,0-0.001,0.001-0.001,0.002C6.171,7.865,6.063,7.938,5.955,8.009C6,7.885,6.046,7.761,6.091,7.637
							c0.002-0.001,0.003-0.001,0.005-0.002c-0.001,0-0.003,0-0.004,0C5.98,7.552,5.87,7.468,5.759,7.382
							c0.134,0.013,0.269,0.023,0.402,0.032C6.197,7.288,6.234,7.162,6.27,7.036c0.041,0.13,0.083,0.26,0.124,0.39v0.002
							c0.001,0,0.001,0,0.002,0C6.531,7.434,6.666,7.439,6.8,7.442C6.689,7.515,6.578,7.586,6.467,7.656c-0.001,0-0.001,0-0.002,0
							C6.466,7.657,6.468,7.657,6.469,7.658z"/>
					</g>
					<g>
						<path fill="#FFFFFF" d="M6.469,9.652c0.046,0.13,0.091,0.259,0.136,0.388C6.497,9.955,6.39,9.87,6.281,9.783
							c0,0-0.001,0-0.001-0.001c0,0.001-0.001,0.001-0.001,0.001C6.171,9.857,6.063,9.93,5.955,10.002
							C6,9.878,6.046,9.755,6.091,9.631C6.093,9.63,6.094,9.629,6.096,9.627c-0.001,0-0.003,0-0.004,0
							C5.98,9.545,5.87,9.461,5.759,9.376c0.134,0.013,0.269,0.021,0.402,0.031C6.197,9.281,6.234,9.156,6.27,9.029
							C6.312,9.159,6.354,9.29,6.395,9.42c0,0.001,0,0.001,0,0.001c0.001,0,0.001,0,0.002,0c0.136,0.006,0.271,0.012,0.404,0.015
							C6.689,9.508,6.578,9.578,6.467,9.648c-0.001,0-0.001,0-0.002,0C6.466,9.649,6.468,9.651,6.469,9.652z"/>
					</g>
					<g>
						<path fill="#FFFFFF" d="M6.469,11.645c0.046,0.13,0.091,0.259,0.137,0.389c-0.107-0.084-0.216-0.169-0.323-0.256
							c0-0.001-0.002-0.001-0.002-0.001s-0.001,0-0.001,0.001c-0.107,0.073-0.216,0.146-0.323,0.219
							c0.044-0.125,0.09-0.249,0.135-0.373c0.002-0.001,0.003-0.001,0.005-0.002c-0.001,0-0.003,0-0.004,0
							c-0.111-0.083-0.222-0.167-0.333-0.253c0.134,0.013,0.269,0.022,0.402,0.031c0.035-0.126,0.072-0.252,0.108-0.378
							c0.041,0.13,0.083,0.261,0.124,0.391c0,0.001,0,0.002,0,0.002c0.001,0,0.001,0,0.002,0c0.135,0.006,0.271,0.011,0.404,0.014
							c-0.111,0.073-0.223,0.146-0.334,0.215c-0.001,0-0.001,0-0.002,0C6.466,11.644,6.468,11.644,6.469,11.645z"/>
					</g>
				</g>
				<g>
					<g>
						<path fill="#FFFFFF" d="M4.385,5.431C4.43,5.566,4.476,5.702,4.521,5.838C4.412,5.74,4.304,5.639,4.195,5.537
							c0-0.001,0-0.001,0-0.001s0,0,0,0.001C4.087,5.596,3.979,5.653,3.871,5.709c0.045-0.117,0.091-0.235,0.136-0.354
							C4.008,5.355,4.009,5.354,4.01,5.354c-0.001,0-0.001,0-0.002,0c-0.111-0.099-0.223-0.197-0.334-0.3
							c0.134,0.032,0.269,0.063,0.402,0.089c0.036-0.12,0.072-0.241,0.109-0.361C4.228,4.917,4.27,5.054,4.311,5.189H4.31
							c0.001,0,0.001,0,0.002,0C4.447,5.214,4.583,5.238,4.717,5.26C4.605,5.317,4.494,5.373,4.383,5.428
							c-0.001,0-0.001-0.001-0.002-0.001C4.382,5.429,4.384,5.43,4.385,5.431z"/>
					</g>
					<g>
						<path fill="#FFFFFF" d="M4.385,7.424C4.43,7.56,4.476,7.694,4.521,7.83c-0.107-0.1-0.217-0.198-0.325-0.3c0,0,0-0.002,0-0.003
							c0,0.001,0,0.001,0,0.001C4.088,7.589,3.98,7.645,3.872,7.701c0.044-0.117,0.09-0.234,0.135-0.352
							C4.008,7.349,4.009,7.349,4.01,7.348c-0.001,0-0.001,0-0.002,0c-0.111-0.1-0.223-0.2-0.334-0.302
							c0.134,0.032,0.269,0.063,0.402,0.09c0.036-0.12,0.072-0.241,0.109-0.362C4.228,6.91,4.27,7.046,4.311,7.182
							c0,0-0.001,0.001-0.001,0.002c0.001,0,0.001-0.001,0.002-0.001c0.135,0.025,0.271,0.049,0.405,0.07
							C4.605,7.311,4.494,7.366,4.383,7.422c-0.001,0-0.001-0.001-0.002-0.001C4.382,7.422,4.384,7.423,4.385,7.424z"/>
					</g>
					<g>
						<path fill="#FFFFFF" d="M4.385,9.418c0.045,0.136,0.091,0.27,0.136,0.405C4.412,9.725,4.304,9.624,4.195,9.522V9.521v0.001
							c-0.107,0.06-0.216,0.117-0.323,0.172c0.045-0.115,0.091-0.232,0.136-0.351c0.001,0,0.002-0.002,0.003-0.003
							c-0.001,0-0.001,0-0.002,0c-0.111-0.099-0.223-0.198-0.334-0.3c0.134,0.032,0.269,0.062,0.402,0.089
							c0.036-0.12,0.072-0.241,0.109-0.362C4.228,8.903,4.27,9.04,4.311,9.176L4.31,9.177c0.001,0,0.001-0.001,0.002-0.001
							c0.135,0.025,0.271,0.049,0.405,0.071C4.605,9.304,4.494,9.359,4.383,9.414c-0.001,0-0.001-0.001-0.002-0.001
							C4.382,9.415,4.384,9.416,4.385,9.418z"/>
					</g>
					<g>
						<path fill="#FFFFFF" d="M4.385,11.41c0.045,0.136,0.091,0.271,0.136,0.405c-0.107-0.099-0.217-0.197-0.325-0.3
							c0,0,0-0.001,0-0.002c0,0.001,0,0.001,0,0.001c-0.107,0.061-0.216,0.116-0.323,0.172c0.045-0.117,0.091-0.233,0.136-0.352
							c0.001-0.001,0.002-0.001,0.003-0.002c-0.001,0-0.001,0-0.002,0c-0.111-0.101-0.223-0.2-0.334-0.302
							c0.134,0.031,0.269,0.063,0.402,0.09c0.036-0.12,0.072-0.241,0.109-0.362c0.041,0.137,0.083,0.272,0.124,0.408
							c0,0.001-0.001,0.001-0.001,0.001c0.001,0.001,0.001,0,0.002,0c0.135,0.024,0.271,0.049,0.405,0.069
							c-0.111,0.059-0.223,0.113-0.334,0.17c-0.001,0-0.001-0.001-0.002-0.001C4.382,11.408,4.384,11.409,4.385,11.41z"/>
					</g>
				</g>
				<g>
					<g>
						<path fill="#FFFFFF" d="M2.299,4.881c0.045,0.144,0.09,0.286,0.135,0.429C2.325,5.193,2.218,5.075,2.109,4.956
							c0,0,0-0.001,0-0.002c0,0.001,0,0.001,0,0.001C2.001,4.997,1.894,5.036,1.785,5.074c0.045-0.11,0.091-0.222,0.136-0.331
							c0.001,0,0.003-0.001,0.004-0.001C1.924,4.741,1.923,4.741,1.922,4.741C1.811,4.624,1.699,4.505,1.588,4.385
							C1.722,4.439,1.856,4.492,1.99,4.542C2.027,4.428,2.063,4.313,2.1,4.198c0.041,0.144,0.083,0.285,0.124,0.429l0,0l0,0
							C2.36,4.675,2.495,4.721,2.631,4.764C2.52,4.804,2.407,4.841,2.296,4.877H2.295C2.296,4.878,2.298,4.88,2.299,4.881z"/>
					</g>
					<g>
						<path fill="#FFFFFF" d="M2.299,6.874c0.045,0.143,0.09,0.285,0.135,0.428C2.325,7.186,2.218,7.068,2.109,6.949
							c0-0.001,0-0.001,0-0.001s0,0,0,0.001C2.001,6.99,1.893,7.028,1.785,7.066c0.045-0.108,0.091-0.22,0.136-0.33
							c0.001,0,0.003,0,0.004,0C1.924,6.735,1.923,6.735,1.922,6.735C1.811,6.617,1.699,6.498,1.588,6.377
							C1.722,6.432,1.856,6.484,1.99,6.535C2.027,6.421,2.063,6.306,2.1,6.191c0.041,0.144,0.083,0.285,0.124,0.429v0.002
							c0,0,0,0,0-0.001C2.36,6.668,2.495,6.713,2.631,6.756C2.52,6.796,2.407,6.834,2.296,6.871H2.295
							C2.296,6.872,2.298,6.873,2.299,6.874z"/>
					</g>
					<g>
						<path fill="#FFFFFF" d="M2.299,8.868c0.045,0.143,0.09,0.284,0.135,0.427C2.325,9.179,2.218,9.061,2.109,8.941V8.94v0.001
							C2.001,8.982,1.894,9.021,1.785,9.06C1.83,8.95,1.876,8.841,1.921,8.73c0.001-0.001,0.003-0.001,0.004-0.002
							c-0.001,0-0.002,0-0.003,0C1.811,8.61,1.699,8.491,1.588,8.371C1.722,8.426,1.856,8.479,1.99,8.528
							C2.027,8.414,2.063,8.299,2.1,8.184C2.141,8.328,2.183,8.47,2.224,8.613v0.002V8.613C2.36,8.661,2.495,8.707,2.631,8.75
							C2.52,8.79,2.407,8.827,2.296,8.863H2.295C2.296,8.865,2.298,8.866,2.299,8.868z"/>
					</g>
					<g>
						<path fill="#FFFFFF" d="M2.299,10.86c0.045,0.144,0.09,0.285,0.135,0.429c-0.107-0.116-0.216-0.233-0.324-0.354
							c0-0.001,0-0.001,0-0.001s0,0,0,0.001c-0.107,0.04-0.216,0.079-0.323,0.117c0.045-0.109,0.091-0.22,0.136-0.33
							c0.001,0,0.003,0,0.004,0c-0.001-0.001-0.002-0.001-0.003-0.001c-0.111-0.118-0.223-0.237-0.334-0.358
							c0.134,0.056,0.269,0.107,0.402,0.158c0.036-0.113,0.072-0.229,0.109-0.344c0.041,0.143,0.083,0.285,0.124,0.428v0.002
							c0,0,0,0,0-0.001c0.136,0.048,0.271,0.094,0.406,0.137c-0.111,0.04-0.224,0.077-0.335,0.114H2.295
							C2.296,10.858,2.298,10.859,2.299,10.86z"/>
					</g>
				</g>
				<g>
					<g>
						<path fill="#FFFFFF" d="M11.736,6.195c0.045,0.118,0.092,0.236,0.137,0.354c-0.108-0.058-0.217-0.116-0.324-0.176
							c0,0,0-0.001,0-0.002c0,0.001-0.001,0.002-0.001,0.002c-0.108,0.101-0.216,0.2-0.324,0.299
							c0.045-0.135,0.091-0.271,0.136-0.406c0.002-0.001,0.003-0.002,0.005-0.004c-0.001,0-0.003,0.001-0.004,0.001
							c-0.11-0.055-0.222-0.11-0.333-0.166c0.135-0.022,0.269-0.047,0.401-0.071c0.037-0.135,0.073-0.271,0.11-0.404
							c0.041,0.12,0.083,0.239,0.124,0.359c0,0,0,0.001,0,0.002c0-0.001,0-0.001,0-0.001c0.136-0.026,0.271-0.054,0.405-0.082
							c-0.11,0.099-0.223,0.195-0.334,0.292c-0.001,0-0.001,0-0.002,0.001C11.733,6.193,11.735,6.194,11.736,6.195z"/>
					</g>
					<g>
						<path fill="#FFFFFF" d="M11.736,8.189c0.045,0.118,0.092,0.236,0.137,0.354c-0.108-0.059-0.217-0.117-0.324-0.177l0,0h-0.001
							c-0.108,0.101-0.216,0.2-0.324,0.3c0.045-0.135,0.091-0.271,0.136-0.405c0.002-0.002,0.003-0.003,0.005-0.005
							c-0.001,0.001-0.003,0.001-0.004,0.001c-0.11-0.055-0.222-0.109-0.333-0.165c0.135-0.023,0.269-0.047,0.401-0.072
							c0.037-0.135,0.073-0.271,0.11-0.404c0.041,0.119,0.083,0.239,0.124,0.36l0,0l0,0c0.136-0.025,0.271-0.054,0.405-0.081
							c-0.11,0.099-0.223,0.194-0.334,0.291c-0.001,0-0.001,0-0.002,0.001C11.733,8.188,11.735,8.188,11.736,8.189z"/>
					</g>
					<g>
						<path fill="#FFFFFF" d="M11.736,10.185c0.045,0.118,0.092,0.236,0.137,0.354c-0.108-0.059-0.217-0.117-0.324-0.178v-0.001
							l-0.001,0.001c-0.108,0.102-0.216,0.201-0.324,0.301c0.045-0.136,0.091-0.271,0.136-0.406
							c0.002-0.001,0.003-0.002,0.005-0.003c-0.001,0-0.003,0.001-0.004,0.001c-0.11-0.056-0.222-0.11-0.333-0.167
							c0.135-0.022,0.269-0.047,0.401-0.071c0.037-0.135,0.073-0.271,0.11-0.405c0.041,0.12,0.083,0.24,0.124,0.36v0.002V9.972
							c0.136-0.027,0.271-0.054,0.405-0.082c-0.11,0.098-0.223,0.196-0.334,0.293c-0.001,0-0.001,0-0.002,0.001
							C11.733,10.184,11.735,10.184,11.736,10.185z"/>
					</g>
					<g>
						<path fill="#FFFFFF" d="M11.736,12.181c0.045,0.118,0.092,0.236,0.137,0.354c-0.108-0.059-0.217-0.116-0.324-0.177
							c0-0.001,0-0.001,0-0.001l-0.001,0.001c-0.108,0.102-0.216,0.2-0.324,0.3c0.045-0.136,0.091-0.271,0.136-0.406
							c0.002-0.001,0.003-0.002,0.005-0.004c-0.001,0-0.003,0.001-0.004,0.001c-0.11-0.056-0.222-0.109-0.333-0.165
							c0.135-0.023,0.269-0.047,0.401-0.072c0.037-0.135,0.073-0.271,0.11-0.405c0.041,0.12,0.083,0.24,0.124,0.361
							c0,0,0,0.001,0,0.002c0-0.001,0-0.002,0-0.002c0.136-0.026,0.271-0.054,0.405-0.081c-0.11,0.098-0.223,0.194-0.334,0.291
							c-0.001,0-0.001,0-0.002,0.001C11.733,12.179,11.735,12.18,11.736,12.181z"/>
					</g>
					<g>
						<path fill="#FFFFFF" d="M11.736,4.211c0.045,0.118,0.092,0.236,0.137,0.354c-0.108-0.058-0.217-0.115-0.324-0.176
							c0-0.001,0-0.001,0-0.001L11.547,4.39c-0.108,0.102-0.216,0.2-0.324,0.299c0.045-0.135,0.091-0.271,0.136-0.405
							c0.002-0.001,0.003-0.002,0.005-0.005c-0.001,0-0.003,0.002-0.004,0.002c-0.11-0.056-0.222-0.11-0.333-0.166
							c0.135-0.023,0.269-0.048,0.401-0.072c0.037-0.135,0.073-0.271,0.11-0.404c0.041,0.12,0.083,0.24,0.124,0.36
							c0,0,0,0.001,0,0.002c0-0.001,0-0.002,0-0.002c0.136-0.026,0.271-0.055,0.405-0.081c-0.11,0.098-0.223,0.194-0.334,0.292
							c-0.001,0-0.001,0-0.002,0.001C11.733,4.209,11.735,4.21,11.736,4.211z"/>
					</g>
				</g>
				<g>
					<g>
						<path fill="#FFFFFF" d="M9.664,6.525C9.709,6.647,9.755,6.77,9.8,6.891c-0.108-0.064-0.217-0.133-0.325-0.2V6.688V6.69
							C9.366,6.782,9.259,6.873,9.15,6.963C9.195,6.832,9.241,6.7,9.286,6.567c0.001-0.001,0.002-0.002,0.003-0.003
							c-0.001,0-0.001,0-0.002,0C9.176,6.501,9.065,6.437,8.954,6.371c0.134-0.013,0.268-0.024,0.4-0.038
							c0.037-0.132,0.073-0.266,0.11-0.396C9.507,6.06,9.549,6.183,9.59,6.306v0.002c0,0,0,0,0-0.001
							c0.136-0.016,0.27-0.034,0.406-0.052c-0.111,0.091-0.224,0.18-0.334,0.269c-0.001,0-0.001,0-0.002,0
							C9.661,6.524,9.663,6.525,9.664,6.525z"/>
					</g>
					<g>
						<path fill="#FFFFFF" d="M9.664,8.52C9.709,8.642,9.755,8.763,9.8,8.884C9.691,8.817,9.583,8.751,9.475,8.683l0,0l0,0
							C9.366,8.774,9.259,8.866,9.15,8.956c0.045-0.131,0.092-0.264,0.137-0.396c0.001,0,0.002-0.001,0.003-0.003
							c-0.001,0-0.001,0-0.002,0C9.176,8.495,9.065,8.431,8.954,8.365c0.134-0.013,0.268-0.024,0.4-0.039
							c0.037-0.133,0.073-0.266,0.11-0.396C9.507,8.054,9.549,8.177,9.59,8.3l0,0l0,0c0.136-0.016,0.27-0.032,0.406-0.051
							c-0.111,0.09-0.224,0.179-0.334,0.268c-0.001,0-0.001,0-0.002,0C9.661,8.518,9.663,8.519,9.664,8.52z"/>
					</g>
					<g>
						<path fill="#FFFFFF" d="M9.664,10.515c0.045,0.122,0.091,0.244,0.136,0.365c-0.108-0.066-0.217-0.133-0.325-0.201v-0.001
							v0.001c-0.107,0.092-0.216,0.184-0.324,0.273c0.045-0.132,0.092-0.264,0.137-0.396c0.001-0.001,0.002-0.002,0.003-0.003
							c-0.001,0-0.001,0-0.002,0c-0.111-0.063-0.223-0.129-0.333-0.194c0.134-0.012,0.268-0.023,0.4-0.037
							c0.037-0.133,0.073-0.266,0.11-0.396c0.041,0.123,0.083,0.246,0.124,0.369v0.002c0,0,0,0,0-0.001
							c0.136-0.016,0.271-0.033,0.406-0.052c-0.111,0.091-0.224,0.181-0.334,0.27c-0.001,0-0.001,0-0.002,0
							C9.661,10.514,9.663,10.515,9.664,10.515z"/>
					</g>
					<g>
						<path fill="#FFFFFF" d="M9.664,12.511c0.045,0.122,0.091,0.244,0.136,0.365c-0.108-0.065-0.217-0.133-0.325-0.2
							c0-0.001,0-0.002,0-0.002s0,0.001,0,0.002c-0.107,0.092-0.216,0.183-0.324,0.272c0.045-0.132,0.092-0.264,0.137-0.396
							c0.001-0.002,0.002-0.003,0.003-0.004c-0.001,0-0.001,0-0.002,0c-0.111-0.063-0.223-0.127-0.333-0.192
							c0.134-0.012,0.268-0.023,0.4-0.039c0.037-0.132,0.073-0.265,0.11-0.396c0.041,0.124,0.083,0.247,0.124,0.37
							c0,0.001,0,0.002,0,0.002s0-0.001,0-0.002c0.136-0.017,0.271-0.032,0.406-0.051c-0.111,0.09-0.224,0.179-0.334,0.268
							c-0.001,0-0.001,0-0.002,0C9.661,12.51,9.663,12.511,9.664,12.511z"/>
					</g>
					<g>
						<path fill="#FFFFFF" d="M9.664,4.541C9.709,4.663,9.755,4.785,9.8,4.906c-0.108-0.065-0.217-0.134-0.325-0.2V4.704v0.002
							C9.366,4.798,9.259,4.889,9.15,4.979c0.045-0.131,0.092-0.263,0.137-0.396C9.287,4.582,9.288,4.581,9.289,4.58
							c-0.001,0-0.001,0-0.002,0C9.176,4.517,9.065,4.452,8.954,4.387c0.134-0.012,0.268-0.024,0.4-0.039
							c0.037-0.132,0.073-0.264,0.11-0.396C9.507,4.075,9.549,4.198,9.59,4.321v0.003V4.321c0.136-0.015,0.27-0.031,0.406-0.05
							c-0.111,0.09-0.224,0.18-0.334,0.269c-0.001,0-0.001,0-0.002,0C9.661,4.54,9.663,4.541,9.664,4.541z"/>
					</g>
				</g>
				<g>
					<g>
						<path fill="#FFFFFF" d="M7.509,6.676C7.554,6.802,7.6,6.929,7.645,7.055C7.536,6.978,7.429,6.899,7.32,6.819L7.319,6.817
							L7.318,6.819C7.211,6.9,7.104,6.979,6.996,7.058c0.045-0.127,0.09-0.254,0.135-0.381c0.001-0.001,0.003-0.002,0.004-0.003
							c-0.001,0-0.001,0-0.002,0C7.021,6.599,6.91,6.521,6.799,6.443c0.134,0.005,0.267,0.007,0.4,0.008
							c0.036-0.13,0.073-0.258,0.11-0.386C7.352,6.192,7.394,6.32,7.435,6.448V6.45l0.001-0.001C7.57,6.448,7.706,6.443,7.841,6.438
							c-0.112,0.08-0.223,0.158-0.334,0.235c-0.001,0-0.001,0-0.002,0C7.506,6.674,7.508,6.675,7.509,6.676z"/>
					</g>
					<g>
						<path fill="#FFFFFF" d="M7.509,8.67C7.554,8.796,7.6,8.922,7.645,9.048C7.536,8.97,7.429,8.892,7.32,8.812H7.319H7.318
							c-0.106,0.081-0.215,0.16-0.321,0.239c0.045-0.126,0.09-0.253,0.135-0.38C7.132,8.67,7.134,8.669,7.135,8.667
							c-0.001,0-0.001,0-0.002,0C7.021,8.592,6.91,8.516,6.799,8.438c0.134,0.003,0.267,0.005,0.4,0.006
							c0.036-0.129,0.073-0.257,0.11-0.385c0.041,0.128,0.083,0.256,0.124,0.384l0,0h0.001C7.57,8.44,7.706,8.438,7.841,8.433
							C7.729,8.512,7.618,8.589,7.507,8.666c-0.001,0-0.001,0-0.002,0C7.506,8.667,7.508,8.668,7.509,8.67z"/>
					</g>
					<g>
						<path fill="#FFFFFF" d="M7.509,10.665c0.045,0.126,0.091,0.253,0.136,0.379c-0.107-0.078-0.216-0.156-0.324-0.236H7.319H7.318
							c-0.106,0.081-0.215,0.16-0.321,0.239c0.045-0.127,0.09-0.254,0.135-0.381c0.001,0,0.003-0.001,0.004-0.002
							c-0.001,0-0.001,0-0.002,0c-0.111-0.076-0.223-0.153-0.334-0.231c0.134,0.004,0.267,0.006,0.4,0.007
							c0.036-0.129,0.073-0.257,0.11-0.385c0.041,0.127,0.083,0.255,0.124,0.383c0,0,0,0.001,0,0.002
							c0-0.001,0.001-0.001,0.001-0.001c0.135-0.002,0.271-0.006,0.405-0.01c-0.111,0.079-0.223,0.157-0.334,0.234
							c-0.001,0-0.001,0-0.002,0C7.506,10.663,7.508,10.664,7.509,10.665z"/>
					</g>
					<g>
						<path fill="#FFFFFF" d="M7.509,12.661c0.045,0.126,0.091,0.253,0.136,0.379c-0.107-0.077-0.216-0.155-0.324-0.234
							c0-0.001-0.001-0.002-0.001-0.002s-0.001,0.001-0.001,0.002c-0.106,0.08-0.215,0.159-0.321,0.237
							c0.045-0.127,0.09-0.254,0.135-0.381c0.001-0.001,0.003-0.002,0.004-0.003c-0.001,0-0.001,0-0.002,0
							C7.023,12.584,6.911,12.507,6.8,12.43c0.134,0.003,0.267,0.005,0.4,0.006c0.036-0.129,0.073-0.257,0.11-0.385
							c0.041,0.128,0.083,0.256,0.124,0.384v0.002l0.001-0.002c0.135-0.002,0.271-0.005,0.405-0.01
							c-0.111,0.079-0.223,0.156-0.334,0.233c-0.001,0-0.001,0-0.002,0C7.506,12.659,7.508,12.66,7.509,12.661z"/>
					</g>
					<g>
						<path fill="#FFFFFF" d="M7.509,4.691C7.554,4.817,7.6,4.944,7.645,5.07C7.536,4.993,7.429,4.915,7.32,4.835L7.319,4.833
							L7.318,4.835c-0.106,0.081-0.215,0.16-0.321,0.238c0.045-0.128,0.09-0.255,0.135-0.382C7.132,4.691,7.134,4.69,7.135,4.689
							c-0.001,0-0.001,0-0.002,0C7.021,4.615,6.91,4.537,6.799,4.459c0.134,0.003,0.267,0.005,0.4,0.006
							c0.036-0.128,0.073-0.256,0.11-0.384c0.041,0.127,0.083,0.255,0.124,0.383v0.002l0.001-0.002
							C7.57,4.462,7.706,4.459,7.84,4.454C7.729,4.533,7.618,4.611,7.507,4.688c-0.001,0-0.001,0-0.002,0
							C7.506,4.689,7.508,4.69,7.509,4.691z"/>
					</g>
				</g>
				<g>
					<g>
						<path fill="#FFFFFF" d="M5.401,6.576c0.045,0.133,0.091,0.265,0.136,0.396C5.429,6.882,5.32,6.79,5.213,6.696
							c0,0-0.001-0.001-0.001-0.002c0,0.001-0.001,0.001-0.001,0.001C5.103,6.763,4.995,6.827,4.887,6.891
							c0.046-0.12,0.091-0.241,0.137-0.362c0.001,0,0.002-0.001,0.003-0.002c-0.001,0-0.001,0-0.002,0
							C4.913,6.436,4.803,6.344,4.691,6.25c0.135,0.021,0.269,0.042,0.401,0.061c0.036-0.123,0.073-0.247,0.109-0.37
							c0.042,0.134,0.083,0.267,0.125,0.398v0.002L5.327,6.34c0.135,0.016,0.271,0.03,0.404,0.042
							C5.621,6.446,5.51,6.511,5.398,6.573H5.397C5.398,6.574,5.4,6.575,5.401,6.576z"/>
					</g>
					<g>
						<path fill="#FFFFFF" d="M5.401,8.57c0.045,0.133,0.091,0.265,0.136,0.396C5.429,8.875,5.32,8.782,5.213,8.688H5.212H5.211
							C5.103,8.755,4.995,8.82,4.887,8.884c0.046-0.12,0.091-0.24,0.137-0.361c0-0.002,0.001-0.002,0.002-0.003
							c-0.001,0-0.001,0-0.002,0c-0.11-0.091-0.221-0.183-0.333-0.275c0.135,0.021,0.269,0.042,0.401,0.06
							c0.036-0.123,0.073-0.247,0.109-0.37C5.244,8.066,5.285,8.2,5.327,8.333H5.326h0.001C5.462,8.35,5.598,8.363,5.732,8.376
							C5.621,8.44,5.51,8.504,5.398,8.566H5.397C5.398,8.567,5.4,8.569,5.401,8.57z"/>
					</g>
					<g>
						<path fill="#FFFFFF" d="M5.401,10.565c0.045,0.134,0.091,0.266,0.136,0.396c-0.107-0.091-0.217-0.185-0.323-0.277
							l-0.001-0.001l-0.001,0.001c-0.108,0.066-0.216,0.132-0.324,0.195c0.046-0.12,0.091-0.241,0.137-0.362
							c0.001,0,0.002-0.001,0.003-0.001c-0.001,0-0.001,0-0.002,0c-0.11-0.092-0.222-0.184-0.333-0.276
							c0.135,0.021,0.269,0.043,0.401,0.061c0.036-0.123,0.073-0.247,0.109-0.37c0.042,0.133,0.083,0.266,0.125,0.398
							c0,0.001-0.001,0.002-0.001,0.002l0.001-0.001c0.135,0.016,0.271,0.028,0.404,0.042c-0.11,0.065-0.222,0.129-0.334,0.191
							H5.397C5.398,10.563,5.4,10.564,5.401,10.565z"/>
					</g>
					<g>
						<path fill="#FFFFFF" d="M5.401,12.562c0.045,0.133,0.091,0.266,0.136,0.396c-0.107-0.091-0.217-0.184-0.323-0.276
							c0-0.001-0.001-0.001-0.001-0.001s-0.001,0-0.001,0.001c-0.108,0.066-0.216,0.131-0.324,0.194
							c0.046-0.12,0.091-0.241,0.137-0.362c0.001,0,0.002-0.001,0.003-0.002c-0.001,0-0.001,0-0.002,0
							c-0.11-0.091-0.222-0.183-0.333-0.275c0.135,0.022,0.269,0.042,0.401,0.061c0.036-0.123,0.073-0.247,0.109-0.37
							c0.042,0.133,0.083,0.267,0.125,0.399l-0.001,0.002l0.001-0.002c0.135,0.017,0.271,0.029,0.404,0.043
							c-0.11,0.063-0.223,0.128-0.334,0.189H5.397C5.398,12.56,5.4,12.561,5.401,12.562z"/>
					</g>
					<g>
						<path fill="#FFFFFF" d="M5.401,4.592c0.045,0.133,0.091,0.265,0.136,0.396C5.429,4.897,5.32,4.806,5.213,4.712
							c0,0-0.001-0.001-0.001-0.002c0,0.001-0.001,0.001-0.001,0.001C5.103,4.778,4.995,4.843,4.887,4.906
							c0.046-0.12,0.091-0.241,0.137-0.362c0.001,0,0.002-0.001,0.003-0.002c-0.001,0-0.001,0-0.002,0
							C4.913,4.451,4.803,4.359,4.691,4.266c0.135,0.022,0.269,0.042,0.401,0.061C5.128,4.203,5.165,4.08,5.201,3.957
							C5.243,4.09,5.284,4.223,5.326,4.355c0,0.001-0.001,0.002-0.001,0.002s0.001-0.001,0.001-0.002
							c0.135,0.018,0.271,0.03,0.404,0.043C5.621,4.462,5.51,4.526,5.398,4.589H5.397C5.398,4.59,5.4,4.591,5.401,4.592z"/>
					</g>
				</g>
				<g>
					<g>
						<path fill="#FFFFFF" d="M3.338,6.192c0.045,0.14,0.09,0.278,0.135,0.417C3.364,6.502,3.257,6.394,3.148,6.284V6.282
							c-0.001,0-0.001,0.001-0.002,0.001c-0.106,0.05-0.215,0.099-0.321,0.146c0.045-0.113,0.09-0.228,0.135-0.342
							c0.001,0,0.003-0.001,0.004-0.002c-0.001,0-0.001,0-0.002,0C2.85,5.978,2.738,5.868,2.627,5.757
							C2.761,5.8,2.895,5.841,3.028,5.88c0.037-0.118,0.073-0.235,0.11-0.354C3.18,5.666,3.221,5.804,3.263,5.944
							c0,0.001,0,0.001,0,0.001l0,0c0.136,0.036,0.271,0.07,0.406,0.103c-0.11,0.049-0.224,0.096-0.334,0.141H3.334
							C3.335,6.189,3.337,6.191,3.338,6.192z"/>
					</g>
					<g>
						<path fill="#FFFFFF" d="M3.338,8.187c0.045,0.14,0.09,0.277,0.135,0.416C3.364,8.495,3.257,8.386,3.148,8.276l0,0
							c-0.001,0-0.001-0.001-0.002-0.001C3.039,8.326,2.931,8.375,2.824,8.421c0.045-0.113,0.09-0.228,0.135-0.341
							c0.001,0,0.003,0,0.004-0.001C2.962,8.078,2.962,8.078,2.961,8.078C2.85,7.971,2.738,7.861,2.627,7.751
							c0.134,0.043,0.268,0.084,0.4,0.122c0.037-0.118,0.073-0.235,0.11-0.354C3.18,7.659,3.221,7.798,3.263,7.938l0,0l0,0
							c0.136,0.036,0.271,0.07,0.406,0.104C3.559,8.09,3.446,8.137,3.335,8.182H3.334C3.335,8.184,3.337,8.185,3.338,8.187z"/>
					</g>
					<g>
						<path fill="#FFFFFF" d="M3.338,10.182c0.045,0.141,0.09,0.278,0.135,0.417c-0.107-0.106-0.216-0.217-0.324-0.326v-0.001
							c-0.001,0-0.001,0-0.002,0c-0.106,0.052-0.215,0.101-0.321,0.146c0.045-0.113,0.09-0.229,0.135-0.342
							c0.001,0,0.003,0,0.004-0.001c-0.001,0-0.001,0-0.002,0C2.85,9.967,2.738,9.857,2.627,9.746
							c0.134,0.043,0.268,0.084,0.4,0.123c0.037-0.118,0.073-0.235,0.11-0.354C3.18,9.656,3.221,9.793,3.263,9.933
							c0,0,0,0.001,0,0.002l0,0c0.136,0.036,0.271,0.07,0.406,0.103c-0.111,0.049-0.225,0.097-0.335,0.143l0,0
							C3.335,10.18,3.337,10.181,3.338,10.182z"/>
					</g>
					<g>
						<path fill="#FFFFFF" d="M3.338,12.178c0.045,0.14,0.09,0.278,0.135,0.417c-0.107-0.107-0.216-0.216-0.324-0.325
							c0-0.001,0-0.002,0-0.002c-0.001,0-0.001,0.001-0.002,0.001c-0.106,0.05-0.215,0.1-0.321,0.146
							c0.045-0.113,0.09-0.229,0.135-0.342c0.001,0,0.003-0.001,0.004-0.001C2.962,12.07,2.962,12.07,2.961,12.07
							c-0.111-0.106-0.224-0.217-0.334-0.326c0.134,0.043,0.268,0.084,0.4,0.122c0.037-0.118,0.073-0.235,0.11-0.354
							c0.042,0.14,0.083,0.279,0.125,0.419c0,0.001,0,0.001,0,0.001s0,0,0-0.001c0.136,0.036,0.271,0.07,0.406,0.104
							c-0.111,0.049-0.225,0.096-0.335,0.141l0,0C3.335,12.175,3.337,12.177,3.338,12.178z"/>
					</g>
					<g>
						<path fill="#FFFFFF" d="M3.338,4.208c0.045,0.139,0.09,0.277,0.135,0.417C3.364,4.518,3.257,4.409,3.148,4.3V4.298
							c-0.001,0-0.001,0.001-0.002,0.001c-0.106,0.05-0.215,0.099-0.321,0.146c0.045-0.112,0.09-0.228,0.135-0.342
							c0.001,0,0.003-0.001,0.004-0.002c-0.001,0-0.001,0-0.002,0C2.85,3.993,2.738,3.884,2.627,3.772
							c0.134,0.043,0.268,0.084,0.4,0.122c0.037-0.117,0.073-0.234,0.11-0.353C3.181,3.682,3.222,3.82,3.264,3.96
							c0,0.001,0,0.001,0,0.001s0,0,0-0.001c0.135,0.036,0.271,0.07,0.406,0.103C3.559,4.111,3.446,4.158,3.335,4.204H3.334
							C3.335,4.205,3.337,4.207,3.338,4.208z"/>
					</g>
				</g>
				<g>
					<g>
						<path fill="#FFFFFF" d="M1.239,5.459C1.284,5.606,1.33,5.753,1.375,5.9C1.267,5.774,1.159,5.646,1.051,5.518
							c0-0.001-0.001-0.002-0.001-0.003c0,0.001-0.001,0.001-0.001,0.001C0.942,5.547,0.833,5.576,0.726,5.604
							c0.045-0.104,0.091-0.211,0.136-0.316c0,0,0.004,0,0.005-0.001c-0.001,0-0.001,0-0.003-0.001
							C0.752,5.156,0.64,5.026,0.528,4.895C0.662,4.963,0.796,5.028,0.93,5.091c0.037-0.11,0.073-0.222,0.11-0.333
							c0.041,0.146,0.083,0.293,0.124,0.439c0,0,0,0.001,0,0.002c0,0,0,0,0-0.001C1.3,5.259,1.436,5.316,1.571,5.372
							C1.46,5.401,1.348,5.429,1.236,5.455H1.235C1.236,5.456,1.238,5.458,1.239,5.459z"/>
					</g>
					<g>
						<path fill="#FFFFFF" d="M1.239,7.453C1.284,7.6,1.33,7.747,1.375,7.893C1.267,7.767,1.159,7.639,1.051,7.51L1.05,7.509H1.049
							c-0.107,0.03-0.216,0.06-0.323,0.088c0.045-0.105,0.09-0.211,0.135-0.316c0,0,0.003-0.002,0.005-0.003
							c-0.002,0-0.002,0-0.003-0.001C0.752,7.149,0.64,7.021,0.528,6.889C0.662,6.956,0.796,7.021,0.93,7.084
							c0.037-0.11,0.073-0.223,0.11-0.333c0.041,0.146,0.083,0.294,0.124,0.439l0,0l0,0C1.3,7.252,1.436,7.311,1.571,7.366
							C1.46,7.396,1.348,7.423,1.236,7.448H1.235C1.236,7.45,1.238,7.451,1.239,7.453z"/>
					</g>
					<g>
						<path fill="#FFFFFF" d="M1.239,9.448C1.284,9.596,1.33,9.742,1.375,9.89C1.267,9.763,1.159,9.635,1.051,9.506
							c0,0-0.001-0.001-0.001-0.002c0,0.001-0.001,0.001-0.001,0.001c-0.107,0.03-0.216,0.06-0.323,0.088
							c0.045-0.105,0.091-0.211,0.136-0.317c0,0,0.004,0,0.005,0c-0.001,0-0.001,0-0.003-0.001C0.752,9.146,0.64,9.016,0.528,8.884
							C0.662,8.952,0.796,9.018,0.93,9.08c0.037-0.11,0.073-0.223,0.11-0.333C1.081,8.894,1.123,9.04,1.164,9.187
							c0,0.001,0,0.002,0,0.002V9.188C1.3,9.248,1.436,9.306,1.571,9.361c-0.11,0.03-0.223,0.059-0.335,0.084H1.235
							C1.236,9.446,1.238,9.448,1.239,9.448z"/>
					</g>
					<g>
						<path fill="#FFFFFF" d="M1.239,11.444c0.046,0.147,0.092,0.296,0.137,0.441c-0.108-0.126-0.216-0.254-0.324-0.383
							c0-0.001-0.001-0.002-0.001-0.003c0,0.001-0.001,0.001-0.001,0.001c-0.107,0.031-0.216,0.061-0.323,0.088
							c0.045-0.105,0.091-0.211,0.136-0.317c0,0,0.004,0,0.005-0.001c-0.001,0-0.001,0-0.003-0.001
							c-0.11-0.128-0.224-0.257-0.335-0.389c0.135,0.067,0.269,0.133,0.401,0.195c0.037-0.11,0.073-0.223,0.11-0.333
							c0.041,0.146,0.083,0.294,0.124,0.439c0,0,0,0.001,0,0.002c0-0.001,0-0.001,0-0.001c0.136,0.061,0.271,0.118,0.406,0.174
							c-0.11,0.029-0.224,0.058-0.335,0.082H1.235C1.236,11.441,1.238,11.443,1.239,11.444z"/>
					</g>
					<g>
						<path fill="#FFFFFF" d="M1.239,3.475C1.284,3.622,1.33,3.769,1.375,3.916C1.267,3.79,1.159,3.662,1.051,3.533
							c0-0.001-0.001-0.002-0.001-0.003c0,0.001-0.001,0.001-0.001,0.001c-0.107,0.03-0.216,0.06-0.323,0.088
							c0.045-0.105,0.091-0.211,0.136-0.317c0,0,0.004,0,0.005-0.001c-0.001,0-0.001,0-0.003-0.001
							C0.752,3.172,0.64,3.042,0.528,2.91C0.662,2.978,0.796,3.043,0.93,3.105c0.037-0.109,0.073-0.222,0.11-0.332
							c0.041,0.147,0.083,0.293,0.124,0.44c0,0,0,0.001,0,0.002c0-0.001,0-0.001,0-0.001C1.3,3.273,1.436,3.332,1.571,3.388
							C1.46,3.417,1.348,3.444,1.236,3.471H1.235C1.236,3.472,1.238,3.474,1.239,3.475z"/>
					</g>
				</g>
			</g>
		</g>
	</g>
</g>
<g id="Capa_19">
</g>
</svg>
