<?xml version="1.0" encoding="utf-8"?>
<!-- Generator: Adobe Illustrator 16.0.0, SVG Export Plug-In . SVG Version: 6.00 Build 0)  -->
<!DOCTYPE svg PUBLIC "-//W3C//DTD SVG 1.1//EN" "http://www.w3.org/Graphics/SVG/1.1/DTD/svg11.dtd">
<svg version="1.1" id="Layer_1" xmlns="http://www.w3.org/2000/svg" xmlns:xlink="http://www.w3.org/1999/xlink" x="0px" y="0px"
	 width="33.3px" height="24.719px" viewBox="0 0 33.3 24.719" enable-background="new 0 0 33.3 24.719" xml:space="preserve">
<g id="Capa_1">
	<g>
		<g>
			<g>
				<path fill="#E53030" d="M33.263,22.785c-11.076-6.258-22.153,6.257-33.229,0c0-6.952,0-13.904,0-20.856
					c11.076,6.257,22.153-6.257,33.229,0C33.263,8.881,33.263,15.833,33.263,22.785z"/>
			</g>
			<g>
				<path fill="#FFFFFF" d="M16.024,10.247c1.012,1.243,2.024,2.48,3.036,3.739c-1.699-0.192-3.397-0.321-5.097-0.521
					c1.752-0.929,3.505-1.934,5.257-2.865c-1.146,1.71-2.292,3.451-3.438,5.182C15.863,13.938,15.944,12.092,16.024,10.247z"/>
				<path fill="#FFFFFF" d="M14.688,16.036c-0.95,1.885-2.301,2.952-4.334,3.293c-3.05,0.541-5.518-2.331-5.518-5.388
					c0-3.036,2.468-5.104,5.518-5.646c2.3-0.384,4.028,0.224,4.853,2.009c-0.767-1.171-1.995-1.467-3.679-1.121
					c-2.483,0.529-4.492,2.517-4.492,4.99c0,2.486,2.009,4.523,4.492,3.994C12.992,17.866,13.869,17.343,14.688,16.036z"/>
			</g>
		</g>
	</g>
</g>
<g id="Capa_19">
</g>
</svg>
