<?xml version="1.0" encoding="utf-8"?>
<!-- Generator: Adobe Illustrator 16.0.0, SVG Export Plug-In . SVG Version: 6.00 Build 0)  -->
<!DOCTYPE svg PUBLIC "-//W3C//DTD SVG 1.1//EN" "http://www.w3.org/Graphics/SVG/1.1/DTD/svg11.dtd">
<svg version="1.1" id="Layer_1" xmlns="http://www.w3.org/2000/svg" xmlns:xlink="http://www.w3.org/1999/xlink" x="0px" y="0px"
	 width="523.362px" height="328.209px" viewBox="44.756 252.314 523.362 328.209"
	 enable-background="new 44.756 252.314 523.362 328.209" xml:space="preserve">
<g>
	<path d="M115.087,482.354c0,0,9.753-15.021,26.821-41.305c8.523-13.146,18.875-29.11,30.748-47.422
		c5.899-9.179,12.177-18.946,18.794-29.243c6.593-10.311,13.581-21.114,20.745-32.462c3.589-5.671,7.226-11.473,10.888-17.406
		c1.823-2.97,3.65-5.973,5.462-9.014c0.89-1.522,1.798-3.054,2.666-4.592l1.288-2.314l1.161-2.29
		c1.52-3.278,3.018-6.569,4.402-9.915c0.687-1.665,1.357-3.357,1.882-4.99c0.125-0.401,0.249-0.807,0.333-1.168
		c0.044-0.182,0.079-0.352,0.103-0.491c0.021-0.116,0.023-0.266,0.021-0.146c0.018,0.087-0.022,0.214,0.207,0.697
		c-0.035,0.469,1.855,1.419,0.6,0.741c-0.192-0.135-0.141-0.056,0.154,0.071c0.064,0.03,0.102,0.032,0.098,0.035
		c0.007,0.002-0.074-0.009-0.188-0.002c-0.106,0.001-0.258,0.019-0.412,0.039c-1.318,0.199-2.985,0.854-4.491,1.616
		c-1.534,0.773-3.025,1.71-4.435,2.753l-0.263,0.198c-0.158,0.122-0.079,0.053-0.188,0.147l-0.543,0.461
		c-0.354,0.307-0.744,0.615-1.068,0.921l-1.959,1.839c-1.347,1.321-2.703,2.634-4.041,4.003
		c-10.726,10.904-21.418,22.544-32.187,34.54c-10.733,12.026-21.68,24.37-32.405,37.188c-10.835,12.866-21.473,26.049-31.859,39.787
		c-2.553,3.459-5.205,6.864-7.698,10.395c-2.505,3.521-5.017,7.054-7.535,10.594c-2.43,3.601-4.865,7.209-7.307,10.826
		c-2.433,3.622-4.72,7.353-7.095,11.033c-2.399,3.668-4.608,7.466-6.886,11.229l-3.402,5.66l-3.319,5.736
		c-4.378,7.662-8.624,15.415-12.646,23.305c-8.004,15.76-15.264,32.031-19.82,48.942c-0.545,2.118-1.108,4.228-1.548,6.349
		c-0.438,2.067-0.811,4.199-1.065,6.293c-0.506,4.182-0.612,8.412,0.184,12.188c0.398,1.875,1.044,3.613,1.948,4.98
		c0.451,0.685,0.962,1.272,1.531,1.737c0.28,0.241,0.58,0.44,0.887,0.625c0.074,0.052,0.157,0.085,0.235,0.127
		c0.022,0.015,0.281,0.143,0.112,0.065l0.771,0.324c0.574,0.264,0.863,0.297,1.273,0.446c0.361,0.133,0.906,0.234,1.35,0.357
		c0.952,0.213,1.932,0.396,2.94,0.509c2.01,0.235,4.076,0.355,6.162,0.281c4.167-0.088,8.361-0.736,12.459-1.729
		c1.026-0.242,2.036-0.559,3.057-0.83l3.013-0.985c0.977-0.373,2.01-0.739,2.938-1.114l3.062-1.288
		c7.936-3.492,15.98-7.349,23.9-11.131c15.881-7.614,31.619-15.267,47.286-22.623c7.843-3.667,15.647-7.29,23.525-10.694
		c3.909-1.699,7.787-3.408,11.754-5.013c1.972-0.813,3.938-1.626,5.9-2.437c1.975-0.771,3.946-1.541,5.912-2.311
		c15.73-6.162,31.579-11.259,47.122-15.759c3.962-1.143,7.767-2.193,11.659-3.242c3.91-0.967,7.797-2.036,11.661-2.896
		c3.863-0.905,7.703-1.807,11.537-2.604c1.915-0.408,3.824-0.814,5.728-1.221c1.906-0.378,3.809-0.756,5.702-1.132
		c15.146-2.967,30.024-5.428,44.481-6.997c14.489-1.605,28.485-2.431,41.916-3.144c13.421-0.67,26.287-1.334,38.563-1.584
		c12.269-0.262,23.924-0.193,34.862,0.271c5.479,0.208,10.738,0.538,15.836,0.829c5.091,0.313,9.999,0.617,14.715,0.909
		c4.717,0.28,9.238,0.628,13.56,0.954c2.16,0.161,4.271,0.318,6.329,0.474c2.057,0.195,4.063,0.387,6.016,0.572
		c3.899,0.38,7.589,0.738,11.063,1.077c3.471,0.394,6.723,0.761,9.748,1.104c6.055,0.675,11.195,1.284,15.362,1.789
		c8.335,1.009,12.78,1.546,12.78,1.546c0.109,0.013,0.188,0.112,0.177,0.222c-0.013,0.108-0.111,0.188-0.22,0.178
		c0,0-4.452-0.475-12.798-1.36c-4.174-0.443-9.322-0.979-15.378-1.563c-3.027-0.299-6.281-0.619-9.753-0.962
		c-3.477-0.301-7.169-0.62-11.071-0.957c-1.951-0.164-3.954-0.332-6.009-0.505c-2.059-0.131-4.167-0.266-6.326-0.402
		c-4.318-0.279-8.837-0.575-13.553-0.806c-4.716-0.239-9.622-0.489-14.712-0.747c-5.092-0.234-10.368-0.508-15.818-0.654
		c-10.9-0.346-22.513-0.284-34.743,0.109c-12.229,0.389-25.082,1.1-38.489,1.872c-13.401,0.802-27.366,1.724-41.737,3.414
		c-14.379,1.661-29.135,4.205-44.208,7.264c-15.07,3.096-30.465,6.679-45.935,11.341c-7.736,2.321-15.537,4.73-23.354,7.338
		c-7.807,2.637-15.648,5.42-23.449,8.507c-31.266,12.235-62.248,27.946-94.021,43.202c-7.947,3.817-15.91,7.665-24.045,11.269
		c-8.09,3.672-16.916,6.047-25.901,6.312c-2.245,0.084-4.498-0.035-6.735-0.292c-2.23-0.274-4.473-0.722-6.599-1.571
		c-2.158-0.781-4.036-2.382-5.283-4.3c-1.273-1.921-2.053-4.109-2.535-6.323c-0.94-4.455-0.796-9.028-0.276-13.489
		c0.525-4.476,1.539-8.87,2.687-13.204c4.708-17.35,12.128-33.791,20.236-49.673c4.073-7.941,8.373-15.747,12.799-23.444
		l3.346-5.752l3.438-5.687c2.3-3.781,4.533-7.595,6.956-11.28c2.398-3.699,4.711-7.445,7.168-11.085
		c2.465-3.634,4.925-7.259,7.379-10.875c2.542-3.555,5.078-7.101,7.605-10.637c2.519-3.544,5.19-6.959,7.767-10.43
		c10.457-13.761,21.223-27.03,32.066-39.841c10.828-12.84,21.759-25.218,32.63-37.177c10.878-11.952,21.656-23.525,32.53-34.43
		c1.354-1.368,2.744-2.693,4.119-4.024l2.117-1.952c0.732-0.622,1.422-1.241,2.214-1.82c1.545-1.126,3.171-2.133,4.876-2.977
		c1.707-0.83,3.478-1.563,5.39-1.85c0.48-0.059,0.972-0.098,1.484-0.004c0.128,0.021,0.256,0.059,0.387,0.103
		c0.154,0.063,0.275,0.131,0.359,0.191c-0.026-0.024,0.317,0.137,0.368,0.315c0.085,0.171,0.096,0.316,0.107,0.455
		c-0.015,1.047-0.338,1.911-0.607,2.814c-0.586,1.776-1.285,3.492-1.998,5.193c-1.435,3.396-2.974,6.713-4.519,9.986
		c-1.602,3.282-3.501,6.326-5.306,9.397c-1.843,3.046-3.697,6.047-5.546,9.012c-3.711,5.921-7.393,11.705-11.022,17.355
		c-14.533,22.593-28.09,43.149-40.117,61.36c-12.075,18.18-22.604,34.029-31.272,47.082c-17.428,26.045-27.387,40.928-27.387,40.928
		c-0.063,0.093-0.187,0.116-0.277,0.056C115.051,482.571,115.027,482.446,115.087,482.354z"/>
	<path d="M173.584,470.858c0,0,0.088-0.266,0.252-0.762c0.173-0.487,0.426-1.203,0.749-2.113c0.306-0.898,0.653-1.985,1.115-3.17
		l0.042-0.112c0.001-0.007,0.026-0.063,0.008-0.031l0.018-0.061l0.072-0.246c0.043-0.161,0.054-0.261,0.075-0.392
		c0.021-0.135,0.021-0.238,0.015-0.316c-0.021,0.006-0.024-0.045-0.046,0.023c-0.014,0.053-0.019,0.106-0.016,0.16
		c-0.005,0.076,0.037,0.355,0.126,0.505c0.027,0.051,0.125,0.253,0.258,0.396c0.131,0.146,0.298,0.271,0.464,0.35
		c0.241,0.142,0.528,0.212,0.797,0.193c0.168,0.038,0.427-0.071,0.383-0.031c0.081-0.018-0.035,0.081-0.094,0.151
		c-0.179,0.192-0.399,0.437-0.628,0.719c-0.483,0.615-0.987,1.256-1.508,1.919c-0.533,0.688-1.173,1.377-1.707,2.084
		c-0.557,0.703-1.127,1.425-1.711,2.162c-0.51,0.777-1.098,1.506-1.656,2.277c-0.596,0.737-1.08,1.595-1.604,2.428
		c-0.259,0.417-0.52,0.838-0.781,1.26l-0.418,0.617l-0.21,0.309l-0.026,0.039c-0.063,0.102,0.071-0.116,0.053-0.086l-0.013,0.021
		l-0.049,0.087l-0.1,0.173c-0.529,0.924-1.063,1.854-1.599,2.79c-0.257,0.463-0.561,0.945-0.781,1.395l-0.627,1.324
		c-0.434,0.873-0.959,1.702-1.305,2.62l-0.576,1.347l-0.289,0.67l-0.203,0.646c-0.138,0.428-0.266,0.855-0.419,1.277
		c-0.065,0.142-0.146,0.495-0.205,0.69l-0.16,0.619c-0.21,0.822-0.275,1.565-0.269,1.905c0.004,0.161,0.009,0.141-0.096,0.067
		c-0.112-0.093-0.257-0.156-0.274-0.082c0.052,0.006,0.018,0.075,0.136,0.089c0.045,0.014,0.091,0.028,0.136,0.047l0.034,0.015
		l0.019,0.008c-0.415,0.003-0.103,0.001-0.189,0.002l0.022,0.001l0.18,0.009l0.357,0.02c0.05,0.001,0.14,0.008,0.158,0.006
		l0.041-0.006c0.077-0.02,0.065,0.045,0.236,0.003c0.549-0.045,1.191-0.291,1.847-0.581c0.656-0.289,1.314-0.649,1.935-1.06
		c1.234-0.819,2.392-1.7,3.421-2.511c0.258-0.208,0.508-0.408,0.749-0.604l0.09-0.073l0.045-0.036l0.022-0.019l0.011-0.009
		c-0.022,0.028,0.068-0.079-0.05,0.063l0.168-0.154c0.113-0.1,0.225-0.196,0.334-0.293c0.109-0.096,0.216-0.188,0.321-0.28
		c0.089-0.087,0.143-0.155,0.218-0.233c0.134-0.156,0.294-0.285,0.41-0.459c0.504-0.677,0.795-1.322,0.947-1.783
		c0.151-0.465,0.187-0.719,0.186-0.719l0.007-0.054c0.015-0.108,0.113-0.185,0.221-0.169c0.087,0.012,0.153,0.077,0.167,0.159
		c0,0,0.054,0.298,0.021,0.821c-0.043,0.521-0.14,1.299-0.541,2.197c-0.404,0.919-1.128,1.857-2.017,2.827
		c-0.879,0.987-1.885,2.103-3.129,3.18c-0.614,0.546-1.298,1.071-2.051,1.557c-0.75,0.484-1.587,0.925-2.532,1.181
		c-0.472,0.128-1.01,0.217-1.465,0.218c-0.526,0.018-1.028-0.055-1.55-0.209c-0.501-0.193-1.014-0.479-1.356-0.941
		c-0.344-0.451-0.556-0.981-0.661-1.518c-0.194-1.074-0.102-2.151,0.071-3.198c0.089-0.528,0.188-1.047,0.321-1.563
		c0.15-0.517,0.3-1.033,0.451-1.554c0.663-2.054,1.511-4.067,2.521-6.009l0.741-1.463c0.253-0.481,0.551-0.93,0.823-1.396
		c0.556-0.922,1.11-1.841,1.66-2.753c0.59-0.92,1.228-1.753,1.83-2.618c0.612-0.854,1.183-1.723,1.872-2.479
		c0.658-0.779,1.307-1.546,1.94-2.296c0.682-0.705,1.349-1.395,1.997-2.066c1.316-1.33,2.548-2.547,3.754-3.68
		c0.305-0.277,0.62-0.537,0.95-0.776c0.175-0.112,0.337-0.229,0.552-0.319c0.088-0.051,0.24-0.08,0.371-0.103
		c0.096,0.006,0.197,0.021,0.286,0.059c0.087,0.059,0.198,0.157,0.223,0.234c0.135,0.354,0.034,0.525,0.01,0.737
		c-0.053,0.19-0.112,0.372-0.182,0.541c-0.145,0.348-0.278,0.651-0.453,0.944c-0.678,1.141-1.269,2.135-1.755,2.954
		c-0.481,0.819-0.914,1.423-1.183,1.854c-0.277,0.425-0.425,0.651-0.425,0.651c-0.061,0.092-0.183,0.116-0.273,0.058
		c-0.076-0.05-0.106-0.145-0.079-0.228L173.584,470.858z"/>
	<path d="M262.753,253.3c0,0-0.167-0.019-0.48-0.055c-0.33,0.005-0.635,0.142-1.135,0.359c-0.479,0.234-1.05,0.569-1.729,0.957
		c-0.34,0.199-0.698,0.41-1.077,0.634c-0.189,0.119-0.404,0.168-0.629,0.2c-0.222,0.04-0.443,0.105-0.674,0.171
		c-1.831,0.513-3.967,1.111-6.255,1.752c-1.129,0.333-2.295,0.677-3.479,1.027c-1.216,0.332-2.348,0.813-4.02,0.963
		c-0.204,0.027-0.403,0.001-0.605,0.001c-0.193-0.006-0.438-0.018-0.527-0.027l-0.062-0.004c0.007-0.001-0.021,0.002,0.069-0.002
		c0.01-0.002,0.023,0.003,0.168-0.02c-0.836,0.69,1.752-0.716,1.01-2.251c-1.221-1.122-0.455-0.367-0.784-0.634l-0.082-0.025
		c-0.113-0.026,0.021,0.003,0.06,0.006l0.417,0.051c0.584,0.063,1.191,0.104,1.79,0.136c1.201,0.06,2.391,0.067,3.535,0.028
		c0.572-0.019,1.134-0.05,1.682-0.092c0.576-0.054,1.141-0.106,1.688-0.158c1.086-0.069,2.114-0.134,3.062-0.193
		c0.468,0.008,0.926-0.169,1.409,0.002c0.462,0.136,0.899,0.264,1.313,0.384c0.403,0.124,0.777,0.229,1.117,0.347
		c0.336,0.134,0.639,0.275,0.908,0.394c1.085,0.462,1.645,0.843,1.645,0.843s-0.166,0.021-0.479,0.061
		c-0.299,0.021-0.761,0.142-1.313,0.221c-0.278,0.05-0.584,0.093-0.911,0.161c-0.322,0.079-0.671,0.165-1.043,0.257
		c-0.359,0.088-0.742,0.182-1.146,0.281c-0.198,0.063-0.396,0.049-0.614,0.014c-0.229-0.005-0.46,0.018-0.697,0.031
		c-0.947,0.06-1.975,0.125-3.063,0.193c-0.534,0.051-1.084,0.103-1.646,0.155c-0.592,0.046-1.196,0.079-1.812,0.1
		c-1.229,0.041-2.495,0.033-3.785-0.03c-0.646-0.033-1.293-0.078-1.963-0.15l-0.523-0.064c-0.117-0.02-0.14-0.014-0.406-0.076
		l-0.109-0.033c-0.339-0.271,0.417,0.483-0.812-0.646c-0.752-1.543,1.857-2.952,1.027-2.263c0.154-0.024,0.18-0.02,0.197-0.022
		c0.131-0.005,0.143-0.001,0.188-0.001l0.175,0.01c0.226,0.021,0.297,0.018,0.42,0.021c0.114-0.002,0.232,0.024,0.344,0.002
		c0.86-0.058,2.13-0.493,3.306-0.838c1.206-0.356,2.394-0.706,3.542-1.046c2.285-0.64,4.419-1.236,6.247-1.748
		c0.227-0.064,0.453-0.125,0.669-0.207c0.214-0.09,0.427-0.16,0.654-0.158c0.455-0.001,0.89-0.003,1.297-0.004
		c0.812-0.01,1.56,0.04,2.178,0.135c0.602,0.073,1.179,0.317,1.407,0.506C262.636,253.179,262.753,253.3,262.753,253.3z"/>
	<path d="M253.69,423.698c3.5-3,6.789-7.253,10.225-12.005c5.448-7.539,10.507-15.754,12.229-20.741
		c0.559-1.615,1.321-3.827-0.557-4.747c-2.088-1.023-2.994,0.359-8.879,9.366c-2.715,4.158-5.794,8.869-7.818,11.272
		c-4.542,5.394-7.689,8.921-17.744,16.879c20.109-35.594,42.607-79.136,42.885-79.672c0.507-0.981,0.121-2.188-0.858-2.694
		c-0.982-0.505-2.188-0.122-2.695,0.86c-0.291,0.563-25.166,48.706-45.942,85.05l-6.229,7.979
		c-13.752,15.513-30.26,42.887-31.071,44.237c-7.346,11.542-6.94,12.305-6.329,13.459c0.358,0.675,1.058,1.106,1.824,1.129
		c0.048,0.002,0.099,0.003,0.149,0.003c1.057,0,2.838-0.603,13.013-14.478c4.198-5.725,12.647-17.651,22.074-33.221
		c1.706-2.817,3.487-5.819,5.32-8.955c1.102-0.085,2.194-0.312,3.067-0.537c-0.627,5.913-1.399,13.261,2.354,17.849
		c5.341,6.528,16.384,1.786,22.315-0.76l0.396-0.17c0.948-0.406,2.206-0.908,3.657-1.489c2.272-0.908,4.926-1.97,7.638-3.145
		c-0.509,2.184-0.354,3.743,0.396,4.914c0.466,0.727,1.608,1.916,4.035,1.752c1.618-0.113,3.732-1.175,6.063-2.788
		c0.188,2.377,0.86,4.428,2.358,5.555c0.895,0.673,2.81,1.542,5.613-0.184c4.331-2.665,14.412-14.152,23.71-27.563
		c-0.091,3.09,0.376,4.896,1.454,6.079c1.375,1.513,3.346,1.434,3.995,1.403c1.186-0.049,2.978-0.124,12.408-13.469
		c4.892-6.918,10.099-14.961,13.09-19.862c1.745-2.857,5.107-8.408,9.05-15.125c-0.056,0.158-0.105,0.309-0.153,0.45
		c-4.052,12.155-6.771,20.22-10.348,29.675c-1.2,3.171-2.224,6.748-2.806,9.813c-0.733,3.859-0.784,6.089,1.042,6.81
		c2.288,0.899,3.428-1.872,4.107-3.529c0.624-1.519,1.691-3.715,3.063-6.302c1.407-0.169,3.313-0.935,6.021-2.128l0.424-0.187
		c9.401-4.143,15.853-6.982,26.525-10.188c-3.326,5.191-3.939,9.588-1.63,11.802c1.661,1.596,5.126,2.433,12.167-2.635
		c3.592-2.584,6.161-4.692,8.43-6.554c4.223-3.465,7.272-5.969,14.004-9.135c3.968-1.867,7.233-3.071,9.588-3.77
		c-8.555,7.432-9.403,10.528-9.032,12.566c0.3,1.648,1.182,2.447,1.867,2.826c2.029,1.125,4.548,0.115,8.359-1.408l0.343-0.155
		c0.197-0.108,20.03-11.095,49.768-18.683c29.851-7.615,77.543-11.034,78.021-11.067c1.102-0.077,1.932-1.033,1.854-2.136
		c-0.077-1.102-1.029-1.929-2.136-1.854c-0.48,0.034-48.528,3.477-78.729,11.183c-29.064,7.416-48.893,18.06-50.612,19.001
		c-1.764,0.705-3.917,1.566-4.798,1.6c0,0,0-0.002-0.001-0.003c-0.005-0.097-0.017-2.476,9.807-10.621
		c0.798-0.661,3.224-2.673,1.896-4.763c-1.923-3.028-10.794,0.322-17.898,3.664c-7.18,3.379-10.56,6.15-14.838,9.662
		c-2.222,1.822-4.74,3.889-8.229,6.398c-4.803,3.455-6.856,3.188-7.063,2.993c-0.348-0.334-0.431-2.709,2.403-7.021
		c0.931-1.418,2.01-2.703,3.163-3.854c15.084-4.477,16.965-6.044,17.215-8.124c0.126-1.049-0.409-2.022-1.434-2.608
		c-3.338-1.91-11.611,1.386-17.814,7.162c-0.976,0.286-2.008,0.588-3.104,0.902c-12.585,3.613-19.396,6.613-29.705,11.154
		l-0.425,0.188c-0.601,0.266-1.13,0.491-1.596,0.686c4.477-7.854,10.465-17.213,15.274-22.655c0.934-1.054,1.851-2.085,2.741-3.089
		c8.098-9.109,11.994-13.611,12.133-16.386c0.055-1.063-0.615-1.965-1.628-2.193c-1.206-0.272-2.45-0.555-15.356,15.714
		c-2.956,3.727-12.771,16.295-14.983,21.611c-0.293,0.703-0.599,1.38-0.905,2.021c2.808-7.655,5.266-14.967,8.649-25.12
		c1.453-4.36,6.357-16.28,12.301-30.303c1.113-2.158,2.157-4.242,3.104-6.214c3.012-6.267,6.641-13.94,10.148-21.36
		c5.665-11.979,11.016-23.294,13.832-28.852c1.896-3.742,5.956-12.623,2.705-14.275c-2.349-1.194-3.921,1.92-4.771,3.588
		c-2.257,4.43-17.26,38.579-28.597,65.322c-8.421,16.32-20.851,36.9-24.829,43.419c-7.902,12.948-19.671,29.742-22.486,31.423
		c-0.438-0.002-0.605-0.07-0.634-0.103c-0.28-0.309-0.836-1.729,0.06-8.257c0.109-0.802,0.354-1.797,0.712-2.959
		c0.211-0.335,0.421-0.671,0.63-1.006c11.102-17.84,22.431-40.815,26.869-50.472c6.209-13.505,4.558-14.3,3.231-14.938
		c-2.056-0.988-3.267,0.138-8.46,10.453c-1.508,2.991-3.267,6.422-5.148,10.096c-7.923,15.454-17.509,34.151-20.747,44.114
		c-10.734,16.947-23.26,31.209-27.367,33.735c-0.688,0.424-1.055,0.434-1.109,0.396c-0.503-0.379-1.026-2.097-0.79-5.438
		c6.844-5.777,14.153-14.079,16.036-16.538c4.39-5.729,5.715-7.46,4.994-10.878c-0.188-0.89-0.977-1.946-2.583-1.999
		c-1.054-0.029-2.601,0.426-4.398,1.305c0.176-0.979,0.075-2.051-0.811-2.86c-1.711-1.565-4.451-0.44-8.318,1.878
		c-5.217,3.13-11.16,11.073-14.475,17.13c-1.224,2.233-2.222,4.19-3.003,5.91c-3.876,1.822-7.963,3.456-11.032,4.685
		c-1.488,0.596-2.775,1.109-3.749,1.527l-0.397,0.17c-4.61,1.98-14.205,6.102-17.642,1.901c-2.701-3.301-2.018-9.745-1.467-14.923
		c0.068-0.648,0.137-1.287,0.196-1.909 M304.25,424.879c-0.352,0.97-1.434,2.495-4.211,6.121c-2.534,3.31-7.235,8.38-11.832,12.69
		c0.174-0.733,0.372-1.505,0.598-2.313c0.31-1.112,0.729-2.185,1.231-3.211c2.728-2.845,5.294-5.982,7.327-8.94
		C300.03,427.013,302.652,425.506,304.25,424.879z M283.382,447.939c-2.791,2.27-5.182,3.813-6.519,3.905
		c-0.207,0.015-0.342,0.004-0.42-0.008c-0.104-0.368-0.164-1.558,1.255-4.955c2.354-1.151,4.601-2.375,6.515-3.645
		C283.892,444.664,283.584,446.285,283.382,447.939z M284.638,437.879c-1.018,0.95-2.377,1.908-3.941,2.853
		c0.142-0.263,0.285-0.53,0.437-0.806c3.687-6.733,9.164-13.304,13.025-15.62c0.971-0.583,1.735-0.998,2.333-1.295
		c-0.534,1.015-1.229,2.172-2.063,3.422c-2.926,2.514-5.743,5.716-7.67,9.376C286.073,436.507,285.366,437.199,284.638,437.879z"/>
</g>
</svg>
